<?xml version="1.0" encoding="UTF-8"?><svg width="512" height="512" version="1.1" viewBox="0 0 512 512" xmlns="http://www.w3.org/2000/svg" xmlns:xlink="http://www.w3.org/1999/xlink"><!--Generated by IJSVG (https://github.com/iconjar/IJSVG)--><g transform="scale(8)"><path fill="#000" d="M53.61,14.083c-2.535,-2.536 -5.906,-3.932 -9.492,-3.932c-3.586,0 -6.958,1.396 -9.494,3.932l-2.624,2.625l-2.625,-2.625c-2.535,-2.536 -5.907,-3.932 -9.492,-3.932c-3.586,0 -6.958,1.396 -9.493,3.932c-5.234,5.234 -5.234,13.75 0,18.985l20.196,20.195c0.391,0.391 0.902,0.586 1.414,0.586c0.512,0 1.024,-0.195 1.415,-0.586l20.195,-20.195c5.234,-5.235 5.234,-13.752 0,-18.985Z"></path></g></svg>