<?xml version="1.0" standalone="no"?>
<!DOCTYPE svg PUBLIC "-//W3C//DTD SVG 20010904//EN"
 "http://www.w3.org/TR/2001/REC-SVG-20010904/DTD/svg10.dtd">
<svg version="1.0" xmlns="http://www.w3.org/2000/svg"
 width="4500.000000pt" height="4500.000000pt" viewBox="0 0 4500.000000 4500.000000"
 preserveAspectRatio="xMidYMid meet">

<g transform="translate(0.000000,4500.000000) scale(0.100000,-0.100000)"
fill="#000000" stroke="none">
<path d="M11490 40920 c-203 -43 -354 -124 -507 -273 -137 -133 -222 -273
-280 -462 l-28 -90 -5 -945 -5 -945 -2090 -5 c-2079 -6 -2091 -6 -2240 -28
-535 -77 -999 -230 -1429 -471 -573 -321 -1037 -750 -1401 -1296 -401 -602
-619 -1254 -665 -1990 -6 -100 -10 -1201 -10 -2952 l0 -2793 19665 0 19665 0
0 2839 c0 1825 -4 2884 -10 2967 -42 534 -173 1017 -401 1480 -423 859 -1158
1555 -2038 1929 -326 139 -664 231 -1056 287 -150 22 -155 22 -2237 25 l-2087
3 -4 928 c-3 811 -6 935 -20 992 -81 329 -274 574 -562 715 -171 84 -243 99
-460 99 -152 0 -192 -3 -257 -21 -176 -50 -323 -131 -451 -252 -149 -141 -239
-293 -300 -509 -21 -76 -22 -90 -27 -1012 l-5 -935 -9750 0 -9750 0 -5 945 -5
945 -28 90 c-119 390 -421 666 -810 740 -108 21 -299 18 -407 -5z m-818 -5962
l3 -1353 22 -77 c51 -178 132 -323 251 -450 412 -436 1102 -436 1514 0 119
127 200 272 251 450 l22 77 3 1353 c2 999 5 1352 14 1352 6 0 75 -31 152 -70
658 -324 1156 -892 1389 -1582 231 -683 180 -1430 -142 -2078 -735 -1476
-2586 -1975 -3951 -1065 -180 120 -269 193 -426 349 -214 215 -365 423 -499
687 -342 676 -394 1416 -150 2129 197 575 610 1095 1127 1420 105 66 383 210
405 210 10 0 13 -291 15 -1352z m21578 43 c0 -1445 -2 -1397 63 -1571 120
-319 384 -559 712 -647 88 -23 119 -27 260 -27 136 0 173 3 249 23 201 52 357
143 496 288 170 176 260 363 289 598 7 61 11 498 11 1368 0 702 3 1277 6 1277
4 0 66 -28 138 -63 280 -135 506 -296 732 -522 83 -82 181 -188 218 -235 487
-619 688 -1400 555 -2160 -76 -438 -255 -847 -526 -1203 -99 -129 -298 -335
-431 -444 -317 -262 -744 -472 -1132 -557 -239 -53 -318 -61 -600 -61 -282 0
-380 10 -600 60 -750 170 -1388 643 -1774 1315 -164 286 -276 607 -331 955
-22 135 -31 498 -16 647 81 833 527 1572 1226 2031 106 70 421 237 446 237 5
0 9 -493 9 -1309z"/>
<path d="M2833 17723 c3 -9166 4 -9938 19 -10059 89 -699 290 -1255 653 -1799
559 -838 1396 -1431 2365 -1675 173 -44 384 -82 565 -102 99 -11 2893 -13
16080 -13 l15960 0 165 23 c771 106 1429 385 2020 858 173 138 476 441 612
612 483 606 754 1252 865 2062 16 117 17 750 20 10073 l3 9947 -19665 0
-19665 0 3 -9927z m17644 7319 c259 -69 455 -197 603 -394 77 -101 143 -237
178 -364 l27 -99 0 -785 0 -785 -27 -97 c-103 -375 -381 -653 -754 -756 l-99
-27 -1840 -3 c-2011 -3 -1934 -5 -2107 54 -326 111 -579 377 -673 707 -42 149
-47 259 -42 987 4 745 3 730 71 912 48 127 119 238 218 343 130 137 267 225
435 281 166 54 102 52 2088 50 l1840 -1 82 -23z m8024 6 c171 -43 309 -109
431 -207 206 -164 339 -385 383 -640 22 -125 22 -1492 0 -1608 -77 -406 -368
-719 -773 -831 l-97 -27 -1885 0 -1885 0 -100 28 c-187 51 -327 131 -469 267
-141 135 -230 286 -288 485 -23 80 -23 80 -26 850 -2 677 -1 780 13 850 78
383 339 679 705 800 166 55 100 53 2085 51 1672 -2 1846 -4 1906 -18z m7982 7
c238 -36 433 -139 605 -319 126 -133 204 -273 254 -457 l23 -84 0 -795 c0
-784 0 -796 -22 -876 -80 -302 -274 -544 -543 -679 -109 -55 -221 -90 -335
-105 -67 -8 -563 -10 -1920 -8 l-1830 3 -100 27 c-55 15 -145 50 -200 77 -280
139 -467 367 -557 680 -21 75 -22 90 -26 831 -2 545 0 776 8 830 61 389 335
712 708 835 164 54 109 53 2042 54 1532 1 1809 -1 1893 -14z m-24147 -6246
c239 -33 446 -137 614 -309 101 -103 180 -226 228 -353 69 -186 67 -149 67
-1002 0 -761 0 -771 -22 -856 -50 -196 -142 -359 -282 -500 -135 -136 -289
-225 -480 -277 l-96 -27 -1885 0 -1885 0 -88 23 c-440 117 -742 457 -796 897
-14 118 -15 1368 -1 1485 24 195 106 390 228 540 162 200 421 347 672 379 100
13 3632 13 3726 0z m8141 -17 c191 -51 347 -134 480 -256 136 -125 248 -312
301 -502 l27 -99 0 -785 0 -785 -27 -100 c-103 -373 -381 -649 -757 -753 l-96
-27 -1830 -3 c-1357 -2 -1853 0 -1920 8 -411 54 -756 352 -870 753 -42 149
-47 259 -42 987 4 745 3 730 71 912 48 127 119 238 218 343 130 137 267 225
435 281 166 54 101 52 2088 50 l1840 -1 82 -23z m8024 6 c378 -95 646 -333
773 -686 54 -152 56 -183 56 -967 0 -603 -3 -736 -15 -802 -77 -407 -368 -719
-773 -831 l-97 -27 -1885 0 -1885 0 -100 28 c-187 51 -327 131 -469 267 -141
135 -230 286 -288 485 -23 80 -23 80 -26 850 -2 677 -1 780 13 850 46 228 149
413 315 569 169 159 343 238 610 280 14 2 853 3 1865 2 1673 -2 1846 -4 1906
-18z m7982 7 c238 -36 435 -140 605 -320 127 -135 208 -282 258 -470 18 -66
19 -119 19 -865 0 -784 0 -796 -22 -876 -63 -239 -204 -449 -395 -589 -129
-96 -316 -172 -472 -194 -53 -8 -642 -11 -1880 -11 -1571 0 -1815 2 -1892 15
-118 20 -200 48 -306 102 -269 138 -452 365 -540 672 -21 75 -22 90 -26 831
-2 545 0 776 8 830 71 449 427 806 874 875 63 10 492 13 1876 14 1532 1 1809
-1 1893 -14z m-24155 -6245 c239 -30 452 -136 622 -310 101 -103 180 -226 228
-353 69 -186 67 -149 67 -1002 0 -761 0 -771 -22 -856 -50 -196 -142 -359
-282 -500 -135 -136 -289 -225 -480 -277 l-96 -27 -1850 -3 c-1622 -2 -1860 0
-1938 13 -462 80 -809 445 -866 910 -14 118 -15 1368 -1 1485 24 195 106 390
228 540 162 201 421 346 674 379 96 13 3617 13 3716 1z m8163 -21 c129 -36
225 -78 322 -143 251 -165 411 -408 462 -704 14 -78 15 -194 13 -834 l-3 -743
-28 -100 c-102 -372 -379 -649 -755 -753 l-97 -27 -1885 0 -1885 0 -81 22
c-243 64 -432 185 -579 368 -78 96 -156 248 -190 368 -42 150 -47 260 -42 987
4 745 3 730 71 912 48 127 119 238 218 343 130 137 267 225 435 281 166 54
102 52 2088 51 l1840 -2 96 -26z m8040 0 c209 -58 347 -137 490 -279 159 -158
257 -343 294 -557 22 -127 22 -1493 0 -1610 -77 -407 -368 -719 -773 -831
l-97 -27 -1885 0 -1885 0 -100 27 c-390 107 -686 417 -766 803 -17 83 -19 147
-19 833 0 639 2 754 16 820 46 223 131 381 293 543 167 165 362 263 597 298
32 5 887 8 1899 7 l1840 -1 96 -26z m7949 16 c241 -36 437 -140 608 -320 124
-132 200 -266 255 -455 21 -74 22 -87 25 -844 2 -668 1 -780 -13 -853 -33
-174 -110 -337 -231 -484 -148 -181 -408 -325 -648 -358 -53 -8 -641 -11
-1879 -11 -1955 0 -1891 -2 -2056 54 -336 115 -581 379 -683 735 -21 75 -22
90 -26 831 -2 545 0 776 8 830 71 449 427 806 874 875 128 20 3635 20 3766 0z"/>
</g>
</svg>
