<?xml version="1.0" standalone="no"?>
<!DOCTYPE svg PUBLIC "-//W3C//DTD SVG 20010904//EN"
 "http://www.w3.org/TR/2001/REC-SVG-20010904/DTD/svg10.dtd">
<svg version="1.0" xmlns="http://www.w3.org/2000/svg"
 width="4167.000000pt" height="4167.000000pt" viewBox="0 0 4167.000000 4167.000000"
 preserveAspectRatio="xMidYMid meet">

<g transform="translate(0.000000,4167.000000) scale(0.100000,-0.100000)"
fill="#000000" stroke="none">
<path d="M13310 35209 c-1910 -86 -3721 -773 -5200 -1970 -540 -437 -1133
-1039 -1551 -1575 -1037 -1328 -1669 -2905 -1838 -4584 -36 -353 -44 -567 -38
-1022 7 -557 33 -864 117 -1364 283 -1678 1030 -3219 2177 -4491 58 -65 3173
-3186 6922 -6936 l6816 -6817 6683 6682 c3676 3676 6765 6768 6865 6873 569
597 1017 1206 1396 1897 1330 2426 1451 5364 326 7903 -357 805 -849 1572
-1449 2260 -165 189 -705 732 -891 897 -1102 974 -2370 1644 -3770 1992 -1174
292 -2419 342 -3615 145 -1712 -282 -3286 -1048 -4567 -2224 -93 -84 -350
-336 -573 -559 l-404 -405 -426 422 c-234 233 -486 478 -560 546 -1159 1060
-2551 1786 -4073 2125 -757 169 -1573 240 -2347 205z m700 -1879 c1684 -77
3215 -713 4454 -1849 77 -71 616 -605 1196 -1185 l1055 -1056 1145 1143 c650
650 1203 1193 1280 1259 707 605 1496 1052 2360 1338 1225 406 2547 466 3815
174 1005 -232 1966 -699 2776 -1348 426 -341 904 -819 1244 -1243 1205 -1504
1736 -3464 1459 -5383 -203 -1406 -815 -2699 -1773 -3743 -71 -78 -2871 -2882
-6221 -6232 l-6091 -6090 -6143 6151 c-3379 3382 -6190 6202 -6246 6265 -902
1011 -1495 2298 -1689 3664 -53 369 -65 559 -66 985 0 404 7 528 51 880 149
1202 608 2345 1331 3315 426 572 1021 1165 1604 1598 1268 942 2870 1429 4459
1357z"/>
</g>
</svg>
