<?xml version="1.0" standalone="no"?>
<!DOCTYPE svg PUBLIC "-//W3C//DTD SVG 20010904//EN"
 "http://www.w3.org/TR/2001/REC-SVG-20010904/DTD/svg10.dtd">
<svg version="1.0" xmlns="http://www.w3.org/2000/svg"
 width="9740.000000pt" height="9740.000000pt" viewBox="0 0 9740.000000 9740.000000"
 preserveAspectRatio="xMidYMid meet">

<g transform="translate(0.000000,9740.000000) scale(0.100000,-0.100000)"
fill="#000000" stroke="none">
<path d="M48140 97394 c-854 -26 -1508 -72 -2225 -155 -3523 -408 -6886 -1583
-9895 -3457 -2169 -1351 -4121 -3050 -5759 -5012 -2331 -2792 -3982 -6036
-4861 -9550 -407 -1630 -634 -3242 -700 -4980 -13 -342 -13 -1368 0 -1710 90
-2360 485 -4554 1215 -6745 1378 -4137 3853 -7805 7195 -10666 1781 -1524
3802 -2792 5960 -3739 2433 -1068 5066 -1727 7725 -1935 683 -53 1125 -69
1905 -69 918 0 1515 28 2360 110 6166 598 11860 3573 15911 8314 1456 1704
2678 3622 3601 5655 1643 3616 2355 7563 2087 11570 -343 5137 -2333 10016
-5688 13945 -1136 1330 -2437 2555 -3826 3601 -3409 2567 -7388 4165 -11615
4663 -571 68 -1177 116 -1845 146 -217 10 -1342 20 -1545 14z"/>
<path d="M30555 47000 c-774 -52 -1521 -230 -2210 -525 -367 -157 -1463 -697
-2125 -1045 -3055 -1611 -5866 -3493 -8505 -5694 -1934 -1614 -3773 -3411
-5446 -5322 -4541 -5189 -7936 -11315 -9907 -17879 -368 -1223 -763 -2751
-862 -3328 -231 -1358 -86 -2736 422 -3997 862 -2137 2632 -3730 4833 -4350
203 -57 1228 -295 2235 -519 11749 -2612 23752 -4050 35890 -4301 1351 -28
2064 -34 3820 -34 1756 0 2469 6 3820 34 12211 252 24248 1702 36085 4345
1580 353 2097 480 2445 600 1825 634 3310 1936 4171 3658 435 869 680 1740
766 2730 20 238 23 870 5 1092 -51 608 -103 886 -353 1885 -631 2525 -1460
4977 -2487 7360 -2178 5053 -5203 9693 -8967 13755 -536 578 -1283 1340 -1865
1904 -3526 3410 -7557 6270 -11930 8465 -1135 570 -1514 738 -2008 887 -693
209 -1355 300 -2087 286 -545 -11 -1048 -78 -1559 -208 -683 -174 -1222 -402
-1946 -821 -1467 -850 -2967 -1550 -4540 -2120 -3790 -1372 -7896 -1909
-11960 -1562 -2934 250 -5786 952 -8485 2089 -1062 447 -2058 941 -3055 1513
-412 237 -512 292 -673 373 -780 392 -1612 630 -2502 714 -199 19 -821 28
-1020 15z"/>
</g>
</svg>
