<?xml version="1.0" encoding="UTF-8"?><svg width="512" height="512" version="1.1" viewBox="0 0 512 512" xmlns="http://www.w3.org/2000/svg" xmlns:xlink="http://www.w3.org/1999/xlink"><!--Generated by IJSVG (https://github.com/iconjar/IJSVG)--><g transform="scale(8)"><path fill="#000" d="M57.414,54.586l-15.937,-15.938c2.824,-3.449 4.523,-7.853 4.523,-12.648c0,-11.028 -8.972,-20 -20,-20c-11.028,0 -20,8.972 -20,20c0,11.028 8.972,20 20,20c4.795,0 9.199,-1.699 12.648,-4.523l15.938,15.938c0.391,0.39 0.902,0.585 1.414,0.585c0.512,0 1.023,-0.195 1.414,-0.586c0.781,-0.781 0.781,-2.047 0,-2.828Zm-47.414,-28.586c0,-8.822 7.178,-16 16,-16c8.822,0 16,7.178 16,16c0,8.822 -7.178,16 -16,16c-8.822,0 -16,-7.178 -16,-16Z"></path></g></svg>