<?xml version="1.0" standalone="no"?>
<!DOCTYPE svg PUBLIC "-//W3C//DTD SVG 20010904//EN"
 "http://www.w3.org/TR/2001/REC-SVG-20010904/DTD/svg10.dtd">
<svg version="1.0" xmlns="http://www.w3.org/2000/svg"
 width="992.000000pt" height="854.000000pt" viewBox="0 0 992.000000 854.000000"
 preserveAspectRatio="xMidYMid meet">

<g transform="translate(0.000000,854.000000) scale(0.100000,-0.100000)"
fill="#000000" stroke="none">
<path d="M3174 6554 c3 -813 9 -2044 12 -2735 l7 -1255 596 -254 c953 -405
1636 -688 1727 -714 15 -5 24 -1 28 10 26 69 30 463 31 2899 l0 2519 -245 104
c-135 57 -670 282 -1190 499 -520 217 -951 397 -959 400 -12 5 -13 -213 -7
-1473z"/>
<path d="M2170 7754 c-777 -328 -1519 -645 -1626 -695 -73 -33 -82 -40 -88
-69 -26 -133 -31 -549 -30 -2635 0 -1977 8 -2743 28 -2762 3 -4 73 20 154 52
370 146 1551 644 2009 847 181 80 181 80 188 116 19 105 16 5414 -4 5411 -3 0
-287 -120 -631 -265z"/>
<path d="M7955 7885 c-408 -175 -1308 -554 -1710 -721 l-320 -133 1 -2493 c0
-1371 4 -2596 8 -2721 l8 -229 24 6 c13 4 175 70 361 147 186 78 383 156 438
174 165 53 748 295 1187 491 251 112 325 150 338 174 26 48 32 404 26 1385 -6
983 -43 4046 -48 4050 -2 1 -142 -57 -313 -130z"/>
</g>
</svg>
